<?xml version="1.0" encoding="UTF-8" standalone="no"?>
<!DOCTYPE svg PUBLIC "-//W3C//DTD SVG 1.1//EN" "http://www.w3.org/Graphics/SVG/1.1/DTD/svg11.dtd">
<svg width="100%" height="100%" viewBox="0 0 448 512" version="1.1" xmlns="http://www.w3.org/2000/svg" xmlns:xlink="http://www.w3.org/1999/xlink" xml:space="preserve" xmlns:serif="http://www.serif.com/" style="fill-rule:evenodd;clip-rule:evenodd;stroke-linejoin:round;stroke-miterlimit:1.41421;">
    <path d="M100.3,480L7.4,480L7.4,180.9L100.3,180.9L100.3,480ZM53.8,140.1C24.1,140.1 0,115.5 0,85.8C0,56.1 24.1,32 53.8,32C83.5,32 107.6,56.1 107.6,85.8C107.6,115.5 83.5,140.1 53.8,140.1ZM448,480L355.3,480L355.3,334.4C355.3,299.7 354.6,255.2 307,255.2C258.7,255.2 251.3,292.9 251.3,331.9L251.3,480L158.5,480L158.5,180.9L247.6,180.9L247.6,221.7L248.9,221.7C261.3,198.2 291.6,173.4 336.8,173.4C430.8,173.4 448.1,235.3 448.1,315.7L448.1,480L448,480Z" style="fill:white;fill-rule:nonzero;"/>
</svg>
